<svg xmlns="http://www.w3.org/2000/svg" width="23.259" height="23.259" viewBox="0 0 23.259 23.259">
  <g id="Group_95" data-name="Group 95" transform="translate(-214.128 -578.266)">
    <g id="Group_94" data-name="Group 94" transform="translate(179.155 547.316)">
      <g id="Group_91" data-name="Group 91" transform="translate(35.223 31.2)">
        <path id="Path_35" data-name="Path 35" d="M46.6,53.959A11.379,11.379,0,1,1,57.982,42.579,11.392,11.392,0,0,1,46.6,53.959Zm0-21.806A10.426,10.426,0,1,0,57.029,42.579,10.438,10.438,0,0,0,46.6,32.153Z" transform="translate(-35.223 -31.2)" fill="#8a898d" stroke="#8b898d" stroke-width="0.5"/>
      </g>
      <g id="Group_93" data-name="Group 93" transform="translate(42.795 36.196)">
        <g id="Group_92" data-name="Group 92" transform="translate(0 0)">
          <path id="Path_36" data-name="Path 36" d="M102,84.439c-1.719-.159-3.142-1.206-3.2-2.882V81.55l1.257-.007v.014A1.964,1.964,0,0,0,102,83.3V79.831l-.166-.043c-1.8-.433-2.766-1.235-2.766-2.651v-.014c0-1.546,1.221-2.6,2.932-2.759V73.143h.867v1.221a3.05,3.05,0,0,1,3.019,2.824v.007l-1.257.007v-.014a1.857,1.857,0,0,0-1.762-1.69v3.315l.224.051c1.856.448,2.9,1.213,2.9,2.723V81.6c0,1.733-1.416,2.708-3.12,2.846v1.213H102Zm0-5.836V75.5c-1.1.152-1.676.845-1.676,1.538v.014C100.322,77.751,100.755,78.3,102,78.6Zm.867,1.437v3.279c1.344-.108,1.863-.787,1.863-1.618v-.014c0-.787-.39-1.293-1.82-1.639Z" transform="translate(-98.798 -73.143)" fill="#8a898d" stroke="#8b898d" stroke-width="0.3"/>
        </g>
      </g>
    </g>
  </g>
</svg>
