<svg id="Group_29" data-name="Group 29" xmlns="http://www.w3.org/2000/svg" width="14.38" height="15.715" viewBox="0 0 14.38 15.715">
  <g id="Group_9" data-name="Group 9" transform="translate(0 1.335)">
    <path id="Path_11" data-name="Path 11" d="M234.342,480.6H221.818a.929.929,0,0,1-.928-.928V467.147a.929.929,0,0,1,.928-.928h12.525a.929.929,0,0,1,.928.928v12.525A.929.929,0,0,1,234.342,480.6Zm-12.525-13.739a.288.288,0,0,0-.287.287v12.525a.288.288,0,0,0,.287.287h12.525a.288.288,0,0,0,.287-.287V467.147a.288.288,0,0,0-.287-.287Z" transform="translate(-220.89 -466.219)" fill="#7c7877"/>
  </g>
  <g id="Group_10" data-name="Group 10" transform="translate(0 5.097)">
    <path id="Path_12" data-name="Path 12" d="M234.95,477.791H221.21a.32.32,0,1,1,0-.64h13.74a.32.32,0,0,1,0,.64Z" transform="translate(-220.89 -477.151)" fill="#7c7877"/>
  </g>
  <g id="Group_11" data-name="Group 11" transform="translate(3.614 0)">
    <path id="Path_13" data-name="Path 13" d="M231.71,465.28a.32.32,0,0,1-.32-.32v-2.3a.32.32,0,1,1,.64,0v2.3A.32.32,0,0,1,231.71,465.28Z" transform="translate(-231.39 -462.34)" fill="#7c7877"/>
  </g>
  <g id="Group_12" data-name="Group 12" transform="translate(10.598 0)">
    <path id="Path_14" data-name="Path 14" d="M252,465.28a.32.32,0,0,1-.32-.32v-2.3a.32.32,0,1,1,.64,0v2.3A.32.32,0,0,1,252,465.28Z" transform="translate(-251.682 -462.34)" fill="#7c7877"/>
  </g>
  <g id="Group_16" data-name="Group 16" transform="translate(2.182 7.252)">
    <g id="Group_13" data-name="Group 13">
      <circle id="Ellipse_2" data-name="Ellipse 2" cx="0.74" cy="0.74" r="0.74" fill="#7c7877"/>
    </g>
    <g id="Group_14" data-name="Group 14" transform="translate(0 2.419)">
      <circle id="Ellipse_3" data-name="Ellipse 3" cx="0.74" cy="0.74" r="0.74" fill="#7c7877"/>
    </g>
    <g id="Group_15" data-name="Group 15" transform="translate(0 4.798)">
      <circle id="Ellipse_4" data-name="Ellipse 4" cx="0.74" cy="0.74" r="0.74" fill="#7c7877"/>
    </g>
  </g>
  <g id="Group_20" data-name="Group 20" transform="translate(5.024 7.252)">
    <g id="Group_17" data-name="Group 17">
      <circle id="Ellipse_5" data-name="Ellipse 5" cx="0.74" cy="0.74" r="0.74" fill="#7c7877"/>
    </g>
    <g id="Group_18" data-name="Group 18" transform="translate(0 2.419)">
      <circle id="Ellipse_6" data-name="Ellipse 6" cx="0.74" cy="0.74" r="0.74" fill="#7c7877"/>
    </g>
    <g id="Group_19" data-name="Group 19" transform="translate(0 4.798)">
      <circle id="Ellipse_7" data-name="Ellipse 7" cx="0.74" cy="0.74" r="0.74" fill="#7c7877"/>
    </g>
  </g>
  <g id="Group_24" data-name="Group 24" transform="translate(7.866 7.252)">
    <g id="Group_21" data-name="Group 21">
      <circle id="Ellipse_8" data-name="Ellipse 8" cx="0.74" cy="0.74" r="0.74" fill="#7c7877"/>
    </g>
    <g id="Group_22" data-name="Group 22" transform="translate(0 2.419)">
      <circle id="Ellipse_9" data-name="Ellipse 9" cx="0.74" cy="0.74" r="0.74" fill="#7c7877"/>
    </g>
    <g id="Group_23" data-name="Group 23" transform="translate(0 4.798)">
      <circle id="Ellipse_10" data-name="Ellipse 10" cx="0.74" cy="0.74" r="0.74" fill="#7c7877"/>
    </g>
  </g>
  <g id="Group_28" data-name="Group 28" transform="translate(10.708 7.252)">
    <g id="Group_25" data-name="Group 25">
      <circle id="Ellipse_11" data-name="Ellipse 11" cx="0.74" cy="0.74" r="0.74" fill="#7c7877"/>
    </g>
    <g id="Group_26" data-name="Group 26" transform="translate(0 2.419)">
      <circle id="Ellipse_12" data-name="Ellipse 12" cx="0.74" cy="0.74" r="0.74" fill="#7c7877"/>
    </g>
    <g id="Group_27" data-name="Group 27" transform="translate(0 4.798)">
      <circle id="Ellipse_13" data-name="Ellipse 13" cx="0.74" cy="0.74" r="0.74" fill="#7c7877"/>
    </g>
  </g>
</svg>
