<svg xmlns="http://www.w3.org/2000/svg" width="28.368" height="24.622" viewBox="0 0 28.368 24.622">
  <path id="Chat" d="M53.424,52.17c-7.337,0-13.284,4.9-13.284,10.953a10.074,10.074,0,0,0,3.95,7.789h0a10.116,10.116,0,0,1-2.212,2.938l-.043.039a.626.626,0,0,0,.407,1.1h1.242a9.192,9.192,0,0,0,3.127-.525,7.869,7.869,0,0,0,2.126-1.1,15.762,15.762,0,0,0,4.688.715c7.337,0,13.284-4.9,13.284-10.953S60.761,52.17,53.424,52.17Z" transform="translate(-39.24 -51.27)" fill="none" stroke="#7c7877" stroke-linecap="round" stroke-linejoin="round" stroke-width="1.8"/>
</svg>
