<svg xmlns="http://www.w3.org/2000/svg" width="16.453" height="16.454" viewBox="0 0 16.453 16.454">
  <g id="Group_33" data-name="Group 33" transform="translate(0.05 0.05)">
    <path id="Path_17" data-name="Path 17" d="M796.306,460.47a8.177,8.177,0,1,0,8.175,8.178A8.187,8.187,0,0,0,796.306,460.47Zm7.544,8.178a7.544,7.544,0,1,1-7.544-7.544A7.553,7.553,0,0,1,803.85,468.648Z" transform="translate(-788.128 -460.47)" fill="#7c7877" stroke="#8a898d" stroke-width="0.1"/>
    <path id="Path_18" data-name="Path 18" d="M811.6,474.5v-4.616a.317.317,0,1,0-.634,0v4.73a.314.314,0,0,0,.074.2l2.357,2.848a.314.314,0,0,0,.244.115.327.327,0,0,0,.2-.071.316.316,0,0,0,.043-.446Z" transform="translate(-803.105 -466.435)" fill="#7c7877" stroke="#8a898d" stroke-width="0.1"/>
  </g>
</svg>
