<svg xmlns="http://www.w3.org/2000/svg" width="23.409" height="25.536" viewBox="0 0 23.409 25.536">
  <g id="Group_65" data-name="Group 65" transform="translate(0.25 0.25)">
    <g id="Group_45" data-name="Group 45" transform="translate(0 2.127)">
      <path id="Path_29" data-name="Path 29" d="M106.643,2188.222H86.69a1.48,1.48,0,0,1-1.478-1.478v-19.953a1.479,1.479,0,0,1,1.478-1.478h19.954a1.479,1.479,0,0,1,1.478,1.478v19.953A1.48,1.48,0,0,1,106.643,2188.222ZM86.69,2166.333a.459.459,0,0,0-.458.458v19.953a.458.458,0,0,0,.458.458h19.954a.458.458,0,0,0,.458-.458v-19.953a.459.459,0,0,0-.458-.458Z" transform="translate(-85.212 -2165.313)" fill="#7c7877" stroke="#7c7877" stroke-width="0.5"/>
    </g>
    <g id="Group_46" data-name="Group 46" transform="translate(0 8.121)">
      <path id="Path_30" data-name="Path 30" d="M107.611,2184.331H85.722a.51.51,0,0,1,0-1.02h21.889a.51.51,0,0,1,0,1.02Z" transform="translate(-85.212 -2183.311)" fill="#7c7877" stroke="#7c7877" stroke-width="0.5"/>
    </g>
    <g id="Group_47" data-name="Group 47" transform="translate(5.247 0)">
      <path id="Path_31" data-name="Path 31" d="M103.008,2163.61a.51.51,0,0,1-.51-.51v-3.665a.51.51,0,1,1,1.02,0v3.665A.51.51,0,0,1,103.008,2163.61Z" transform="translate(-102.498 -2158.926)" fill="#7c7877" stroke="#7c7877" stroke-width="0.5"/>
    </g>
    <g id="Group_48" data-name="Group 48" transform="translate(16.883 0)">
      <path id="Path_32" data-name="Path 32" d="M136.416,2163.61a.51.51,0,0,1-.51-.51v-3.665a.51.51,0,1,1,1.02,0v3.665A.51.51,0,0,1,136.416,2163.61Z" transform="translate(-135.906 -2158.926)" fill="#7c7877" stroke="#7c7877" stroke-width="0.5"/>
    </g>
    <g id="Group_52" data-name="Group 52" transform="translate(4.62 11.724)">
      <g id="Group_49" data-name="Group 49">
        <circle id="Ellipse_14" data-name="Ellipse 14" cx="1.179" cy="1.179" r="1.179" fill="#7c7877" stroke="#7c7877" stroke-width="0.1"/>
      </g>
      <g id="Group_50" data-name="Group 50" transform="translate(0 3.853)">
        <circle id="Ellipse_15" data-name="Ellipse 15" cx="1.179" cy="1.179" r="1.179" fill="#7c7877" stroke="#7c7877" stroke-width="0.1"/>
      </g>
      <g id="Group_51" data-name="Group 51" transform="translate(0 7.644)">
        <circle id="Ellipse_16" data-name="Ellipse 16" cx="1.179" cy="1.179" r="1.179" fill="#7c7877" stroke="#7c7877" stroke-width="0.1"/>
      </g>
    </g>
    <g id="Group_56" data-name="Group 56" transform="translate(10.62 11.724)">
      <g id="Group_53" data-name="Group 53">
        <circle id="Ellipse_17" data-name="Ellipse 17" cx="1.179" cy="1.179" r="1.179" fill="#7c7877" stroke="#7c7877" stroke-width="0.1"/>
      </g>
      <g id="Group_54" data-name="Group 54" transform="translate(0 3.853)">
        <circle id="Ellipse_18" data-name="Ellipse 18" cx="1.179" cy="1.179" r="1.179" fill="#7c7877" stroke="#7c7877" stroke-width="0.1"/>
      </g>
      <g id="Group_55" data-name="Group 55" transform="translate(0 7.644)">
        <circle id="Ellipse_19" data-name="Ellipse 19" cx="1.179" cy="1.179" r="1.179" fill="#7c7877" stroke="#7c7877" stroke-width="0.1"/>
      </g>
    </g>
    <g id="Group_60" data-name="Group 60" transform="translate(16.62 11.724)">
      <g id="Group_57" data-name="Group 57">
        <circle id="Ellipse_20" data-name="Ellipse 20" cx="1.179" cy="1.179" r="1.179" fill="#7c7877" stroke="#7c7877" stroke-width="0.1"/>
      </g>
      <g id="Group_58" data-name="Group 58" transform="translate(0 3.853)">
        <circle id="Ellipse_21" data-name="Ellipse 21" cx="1.179" cy="1.179" r="1.179" fill="#7c7877" stroke="#7c7877" stroke-width="0.1"/>
      </g>
      <g id="Group_59" data-name="Group 59" transform="translate(0 7.644)">
        <circle id="Ellipse_22" data-name="Ellipse 22" cx="1.179" cy="1.179" r="1.179" fill="#7c7877" stroke="#7c7877" stroke-width="0.1"/>
      </g>
    </g>
  </g>
</svg>
