<svg xmlns="http://www.w3.org/2000/svg" width="12.432" height="17.836" viewBox="0 0 12.432 17.836">
  <g id="Group_32" data-name="Group 32" transform="translate(0 0)">
    <g id="Group_30" data-name="Group 30" transform="translate(0 0)">
      <path id="Path_15" data-name="Path 15" d="M466.032,477.836a.423.423,0,0,1-.343-.176c-.24-.331-5.873-8.146-5.873-11.444a6.216,6.216,0,0,1,12.432,0c0,3.3-5.633,11.113-5.872,11.444A.425.425,0,0,1,466.032,477.836Zm0-16.987a5.373,5.373,0,0,0-5.367,5.367c0,2.586,4.133,8.694,5.367,10.461,1.234-1.766,5.367-7.875,5.367-10.461A5.373,5.373,0,0,0,466.032,460.849Z" transform="translate(-459.816 -460)" fill="#7c7877"/>
    </g>
    <g id="Group_31" data-name="Group 31" transform="translate(3.337 3.125)">
      <path id="Path_16" data-name="Path 16" d="M472.392,474.838a2.878,2.878,0,1,1,2.878-2.878A2.882,2.882,0,0,1,472.392,474.838Zm0-4.908a2.03,2.03,0,1,0,2.03,2.03A2.032,2.032,0,0,0,472.392,469.93Z" transform="translate(-469.513 -469.081)" fill="#7c7877"/>
    </g>
  </g>
</svg>
