<svg xmlns="http://www.w3.org/2000/svg" width="30.206" height="26.189" viewBox="0 0 30.206 26.189">
  <g id="Group_1930" data-name="Group 1930" transform="translate(0.557 0.5)">
    <g id="Group_42" data-name="Group 42">
      <g id="Group_1929" data-name="Group 1929">
        <path id="Path_26" data-name="Path 26" d="M549.118,2182.36a.546.546,0,0,0-.54.545v15.645h-6.531v-5.943a.427.427,0,0,0-.036-.157,4.111,4.111,0,0,0-8.217.127v5.973h-6.537v-15.645a.546.546,0,1,0-1.086,0v16.178a.546.546,0,0,0,.546.546h7.616a.546.546,0,0,0,.545-.546h0v-6.4a3.032,3.032,0,0,1,6.064,0,.593.593,0,0,0,0,.1v6.3a.546.546,0,0,0,.546.546h7.628a.546.546,0,0,0,.546-.546h0v-16.178a.545.545,0,0,0-.546-.545Z" transform="translate(-523.376 -2174.441)" fill="#0a0909" stroke="#0a0909" stroke-width="1"/>
        <path id="Path_27" data-name="Path 27" d="M546.665,2168.6l-13.977-9.817a.609.609,0,0,0-.315-.085h-.1a.609.609,0,0,0-.315.085l-13.947,9.817a.546.546,0,0,0-.133.758.533.533,0,0,0,.443.23.553.553,0,0,0,.285-.121l13.716-9.6,13.716,9.6a.548.548,0,0,0,.315.1.532.532,0,0,0,.443-.23A.546.546,0,0,0,546.665,2168.6Z" transform="translate(-517.782 -2158.697)" fill="#0a0909" stroke="#0a0909" stroke-width="1"/>
      </g>
      <path id="Path_66" data-name="Path 66" d="M4.043,9.518,15.231,1.511,25.895,9.518V24.042H18.86s1.085-8.117-2.036-8.816-4.874-2.236-5.667,3.182,0,5.634,0,5.634H4.043Z" fill="#0a0909" stroke="#0a0909" stroke-width="1"/>
    </g>
  </g>
</svg>
